<?xml version="1.0" encoding="utf-8"?>
<!-- Generator: Adobe Illustrator 24.1.0, SVG Export Plug-In . SVG Version: 6.00 Build 0)  -->
<svg version="1.1" id="Layer_1" xmlns="http://www.w3.org/2000/svg" xmlns:xlink="http://www.w3.org/1999/xlink" x="0px" y="0px"
	 viewBox="0 0 272 320" style="enable-background:new 0 0 272 320;" xml:space="preserve">
<style type="text/css">
	.st0{fill:#FFFFFF;}
</style>
<g id="Coffee_Cup_02">
	<g id="Coffee_Cup_02-2">
		<path class="st0" d="M207.9,123.4H5.4v90.5c0,55.6,45.1,100.7,100.7,100.7c45.3,0,85-30.2,97.1-73.8h4.8
			c32.4,0,58.7-26.3,58.7-58.7S240.4,123.4,207.9,123.4L207.9,123.4z M207.9,213.6h-1.2v-62.9h1.2c17.4,0,31.5,14.1,31.5,31.5
			C239.4,199.5,225.3,213.6,207.9,213.6L207.9,213.6z"/>
		<path class="st0" d="M27.4,95.5h27.2c0-3.7,0.7-4.9,2.6-8c8.7-13.4,8.7-30.7,0-44.1c-1.9-3.1-2.6-4.3-2.6-8c0-3.7,0.7-4.9,2.6-8
			c4.3-6.5,6.6-14.2,6.5-22.1H36.5c0,3.7-0.7,4.9-2.6,8c-2.6,4.3-6.5,10.8-6.5,22.1c-0.1,7.8,2.2,15.5,6.5,22.1
			c1.9,3.1,2.6,4.3,2.6,8c0,3.7-0.7,4.9-2.6,8C29.5,80,27.3,87.7,27.4,95.5z"/>
		<path class="st0" d="M87.9,95.5h27.2c0-3.7,0.7-4.9,2.6-8c4.3-6.5,6.6-14.2,6.5-22c0-11.3-3.9-17.8-6.5-22.1
			c-1.9-3.1-2.6-4.3-2.6-8c0-3.7,0.7-4.9,2.6-8c4.3-6.5,6.6-14.2,6.5-22.1H97c0,3.7-0.7,4.9-2.6,8c-2.6,4.3-6.5,10.8-6.5,22.1
			c-0.1,7.8,2.2,15.5,6.5,22.1c1.9,3.1,2.6,4.3,2.6,8c0,3.7-0.7,4.9-2.6,8C91.9,77.8,87.9,84.2,87.9,95.5z"/>
		<path class="st0" d="M148.5,95.5h27.2c0-3.7,0.7-4.9,2.6-8c2.6-4.3,6.5-10.8,6.5-22c0.1-7.8-2.2-15.5-6.5-22.1
			c-1.9-3.1-2.6-4.3-2.6-8c0-3.7,0.7-4.9,2.6-8c4.3-6.5,6.6-14.2,6.5-22.1h-27.2c0,3.7-0.7,4.9-2.6,8c-8.7,13.4-8.7,30.7,0,44.1
			c1.9,3.1,2.6,4.3,2.6,8c0,3.7-0.7,4.9-2.6,8C152.4,77.8,148.5,84.2,148.5,95.5z"/>
	</g>
</g>
</svg>
